<?xml version="1.0" encoding="UTF-8" standalone="no"?>
<svg
   width="726.05261pt"
   height="625.05133pt"
   viewBox="0 0 726.05261 625.05133"
   version="1.1"
   id="svg40"
   sodipodi:docname="logo.svg"
   inkscape:version="1.2.2 (b0a8486541, 2022-12-01)"
   inkscape:export-filename="logo.png"
   inkscape:export-xdpi="39.666546"
   inkscape:export-ydpi="39.666546"
   xmlns:inkscape="http://www.inkscape.org/namespaces/inkscape"
   xmlns:sodipodi="http://sodipodi.sourceforge.net/DTD/sodipodi-0.dtd"
   xmlns="http://www.w3.org/2000/svg"
   xmlns:svg="http://www.w3.org/2000/svg">
  <defs
     id="defs44" />
  <sodipodi:namedview
     id="namedview42"
     pagecolor="#505050"
     bordercolor="#ffffff"
     borderopacity="1"
     inkscape:showpageshadow="0"
     inkscape:pageopacity="0"
     inkscape:pagecheckerboard="1"
     inkscape:deskcolor="#d1d1d1"
     inkscape:document-units="pt"
     showgrid="false"
     inkscape:zoom="0.56469727"
     inkscape:cx="-41.615218"
     inkscape:cy="437.4025"
     inkscape:window-width="2560"
     inkscape:window-height="1332"
     inkscape:window-x="3840"
     inkscape:window-y="0"
     inkscape:window-maximized="1"
     inkscape:current-layer="svg40" />
  <g
     id="#fffefdff"
     style="fill:#cccccc"
     transform="translate(-148.98,-185.95865)">
    <path
       fill="#fffefd"
       opacity="1"
       d="m 504.45,253.62 c 28.9,-1.75 58,7.68 81.44,24.49 28.85,19.93 46.96,53.76 49.58,88.53 4.22,43.41 -17.38,88.08 -53.87,111.95 -21.6,14.38 -47.64,22.04 -73.6,21.41 -22.97,-1.16 -45.68,-8.38 -64.8,-21.22 -36.57,-23.95 -58.67,-68.47 -54.62,-112.09 2.1,-29.48 14.78,-58.39 36.16,-78.95 21.49,-20.23 50.25,-32.5 79.71,-34.12 m -43.08,46.75 c -12.45,2.85 -22.7,14.01 -23.84,26.83 -1.88,17.47 13.91,34.56 31.53,33.84 16.89,-0.6 31.55,-17.04 29.13,-34.01 -1.54,-17.35 -19.74,-30.83 -36.82,-26.66 m 88.02,0.11 c -13.26,3.03 -23.82,15.81 -23.45,29.53 -0.5,16.77 15.23,32.37 32.11,31.02 16.59,-0.78 30.37,-17.09 28.39,-33.57 -1.39,-17.55 -19.79,-31.36 -37.05,-26.98 m -89.02,87.91 c -14.43,3.58 -24.92,18.79 -22.64,33.56 1.89,16.01 18.01,29.08 34.11,26.68 15.29,-2.15 27.9,-16.98 26.42,-32.56 -0.8,-18.2 -20.19,-32.65 -37.89,-27.68 m 88.02,0.07 c -13.25,3.51 -23.28,16.81 -22.43,30.58 0.27,18.11 19.16,33.9 37.04,29.13 16.46,-3.62 27.76,-22.39 22.33,-38.54 -4.35,-15.26 -21.44,-25.6 -36.94,-21.17 z"
       id="path18"
       style="fill:#cccccc" />
    <path
       fill="#fffefd"
       opacity="1"
       d="m 221.41,357.88 c 41.28,0.03 82.58,0.22 123.85,-0.89 -0.32,9.85 -1.94,19.71 -0.62,29.56 1.89,42.88 22.1,84.24 53.59,113.22 30.5,28.58 72.08,44.6 113.78,45.25 44.18,-0.26 87.83,-18.71 118.88,-50.14 36.1,-35.05 54.33,-87.38 48.09,-137.25 41.39,0.88 82.8,0.04 124.19,0.45 -68.21,61.2 -137.28,121.45 -205.93,182.16 -24.08,20.92 -47.56,42.52 -72.15,62.84 -8.04,6 -20.22,5.18 -27.63,-1.45 C 479.39,587.11 462.42,571.31 444.86,556.2 370.36,490.09 296.31,423.52 221.41,357.88 Z"
       id="path20"
       style="fill:#cccccc" />
    <path
       fill="#fffefd"
       opacity="1"
       d="M 193,392.63 C 254.82,448.17 316.58,503.8 379.64,557.95 317.33,617.03 254.96,676.03 193,735.46 c 0,-114.28 0,-228.55 0,-342.83 z"
       id="path22"
       style="fill:#cccccc" />
    <path
       fill="#fffefd"
       opacity="1"
       d="M 644.51,557.99 C 706.5,502.31 769.78,448.05 832,392.63 c -0.01,114.55 0.03,229.09 -0.02,343.63 -49.67,-47.41 -99.44,-94.73 -149.22,-142.03 -12.55,-12.28 -25.24,-24.44 -38.25,-36.24 z"
       id="path24"
       style="fill:#cccccc" />
    <path
       fill="#fffefd"
       opacity="1"
       d="m 557.43,634.35 c 18.22,-15.42 35.81,-31.56 53.62,-47.44 62.4,60.44 125.55,120.09 188.39,180.06 -191.75,0.01 -383.5,0.1 -575.26,-0.05 62.72,-59.74 126.16,-118.75 188.05,-179.37 17.79,15.61 35.51,31.28 53.43,46.74 15,13.66 36.15,21.13 56.36,17.58 13.22,-2.1 25.57,-8.53 35.41,-17.52 z"
       id="path26"
       style="fill:#cccccc" />
  </g>
  <path
     fill="#040504"
     opacity="1"
     d="m 207.85,127.04135 c 22.74,-58.440002 81.63,-100.310002 144.2,-103.070002 48.13,-3.3 97.75,14.81 131.29,49.76 15.53,15.13 27.19,33.850002 35.87,53.630002 47.21,0.2 94.44,-0.24 141.64,0.25 34.49,0.26 64.46,31.17 65.16,65.4 0.03,119.34 -0.01,238.69 0.02,358.03 0.34,14.32 -3.15,28.88 -10.89,41.02 -12.25,19.83 -34.89,32.35 -58.11,32.99 -196.01,-0.01 -392.01,-0.02 -588.02,0 -12.65,-0.5 -25.15,-4.32 -35.84,-11.13 -19.9,-12.55 -32.83,-35.34 -33.17,-58.89 0.04,-120.66 0.02,-241.33 0.01,-362 0.69,-28.73 21.52,-55.19 49.1,-62.98 10.98,-3.34 22.58,-2.56 33.91,-2.68 41.61,0.08 83.22,-0.16 124.83,-0.33 M 355.47,67.661348 c -29.46,1.62 -58.22,13.89 -79.71,34.120002 -21.38,20.56 -34.06,49.47 -36.16,78.95 -4.05,43.62 18.05,88.14 54.62,112.09 19.12,12.84 41.83,20.06 64.8,21.22 25.96,0.63 52,-7.03 73.6,-21.41 36.49,-23.87 58.09,-68.54 53.87,-111.95 -2.62,-34.77 -20.73,-68.6 -49.58,-88.530002 -23.44,-16.81 -52.54,-26.24 -81.44,-24.49 M 72.43,171.92135 c 74.9,65.64 148.95,132.21 223.45,198.32 17.56,15.11 34.53,30.91 52.6,45.43 7.41,6.63 19.59,7.45 27.63,1.45 24.59,-20.32 48.07,-41.92 72.15,-62.84 68.65,-60.71 137.72,-120.96 205.93,-182.16 -41.39,-0.41 -82.8,0.43 -124.19,-0.45 6.24,49.87 -11.99,102.2 -48.09,137.25 -31.05,31.43 -74.7,49.88 -118.88,50.14 -41.7,-0.65 -83.28,-16.67 -113.78,-45.25 -31.49,-28.98 -51.7,-70.34 -53.59,-113.22 -1.32,-9.85 0.3,-19.71 0.62,-29.56 -41.27,1.11 -82.57,0.92 -123.85,0.89 m -28.41,34.75 c 0,114.28 0,228.55 0,342.83 61.96,-59.43 124.33,-118.43 186.64,-177.51 -63.06,-54.15 -124.82,-109.78 -186.64,-165.32 m 451.51,165.36 c 13.01,11.8 25.7,23.96 38.25,36.24 49.78,47.3 99.55,94.62 149.22,142.03 0.05,-114.54 0.01,-229.08 0.02,-343.63 -62.22,55.42 -125.5,109.68 -187.49,165.36 m -87.08,76.36 c -9.84,8.99 -22.19,15.42 -35.41,17.52 -20.21,3.55 -41.36,-3.92 -56.36,-17.58 -17.92,-15.46 -35.64,-31.13 -53.43,-46.74 -61.89,60.62 -125.33,119.63 -188.05,179.37 191.76,0.15 383.51,0.06 575.26,0.05 -62.84,-59.97 -125.99,-119.62 -188.39,-180.06 -17.81,15.88 -35.4,32.02 -53.62,47.44 z"
     id="path29"
     style="fill:#643333;fill-opacity:1" />
  <circle
     style="fill:#ffffff;fill-opacity:1;stroke:#000080;stroke-width:44.6;stroke-linecap:round;stroke-linejoin:round;stroke-dasharray:none;stroke-opacity:1"
     id="path415"
     cx="363.18753"
     cy="196.15829"
     r="173.85829" />
  <path
     fill="#040504"
     opacity="1"
     d="m 312.39,114.41135 c 17.08,-4.17 35.28,9.31 36.82,26.66 2.42,16.97 -12.24,33.41 -29.13,34.01 -17.62,0.72 -33.41,-16.37 -31.53,-33.84 1.14,-12.82 11.39,-23.98 23.84,-26.83 z"
     id="path31"
     style="fill:#000080" />
  <path
     fill="#040504"
     opacity="1"
     d="m 400.41,114.52135 c 17.26,-4.38 35.66,9.43 37.05,26.98 1.98,16.48 -11.8,32.79 -28.39,33.57 -16.88,1.35 -32.61,-14.25 -32.11,-31.02 -0.37,-13.72 10.19,-26.5 23.45,-29.53 z"
     id="path33"
     style="fill:#000080" />
  <path
     fill="#040504"
     opacity="1"
     d="m 311.39,202.43135 c 17.7,-4.97 37.09,9.48 37.89,27.68 1.48,15.58 -11.13,30.41 -26.42,32.56 -16.1,2.4 -32.22,-10.67 -34.11,-26.68 -2.28,-14.77 8.21,-29.98 22.64,-33.56 z"
     id="path35"
     style="fill:#000080" />
  <path
     fill="#040504"
     opacity="1"
     d="m 399.41,202.50135 c 15.5,-4.43 32.59,5.91 36.94,21.17 5.43,16.15 -5.87,34.92 -22.33,38.54 -17.88,4.77 -36.77,-11.02 -37.04,-29.13 -0.85,-13.77 9.18,-27.07 22.43,-30.58 z"
     id="path37"
     style="fill:#000080" />
</svg>
